<svg data-name="Layer 1" xmlns="http://www.w3.org/2000/svg" viewBox="0 0 1500 1000"><defs><clipPath id="a"><path d="M1124.48 668.65v-337.3A82.36 82.36 0 0 0 1083.3 260L791.18 91.37a82.32 82.32 0 0 0-82.36 0L416.7 260a82.36 82.36 0 0 0-41.18 71.33v337.3A82.36 82.36 0 0 0 416.7 740l292.12 168.63a82.32 82.32 0 0 0 82.36 0L1083.3 740a82.36 82.36 0 0 0 41.18-71.35" style="fill:none"/></clipPath></defs><g style="clip-path:url(#a)"><path style="fill:#80a44d" d="M301.01 51.01h897.97v897.97H301.01z"/><path style="fill:#fff" d="M818.78 431.22V279.01H681.22v152.21H529.01v137.56h152.21v152.21h137.56V568.78h152.21V431.22z"/></g></svg>